<?xml version="1.0" encoding="UTF-8"?>
<svg id="logo" xmlns="http://www.w3.org/2000/svg" xmlns:xlink="http://www.w3.org/1999/xlink" viewBox="0 0 24 24">
  <defs>
    <linearGradient id="Dégradé_sans_nom_6" data-name="Dégradé sans nom 6" x1="1.89" y1="9.27" x2="22.25" y2="20.42" gradientUnits="userSpaceOnUse">
      <stop offset="0" stop-color="#ace9ac"/>
      <stop offset="1" stop-color="#7f61d8"/>
    </linearGradient>
  </defs>
  <path id="icon" d="M10.84,18.94V.71c0-.15.09-.27.23-.31h1.86c.12.01.24.13.25.25v18.34c-.06.15-.17.22-.32.24-.32.04-1.42.04-1.73,0-.14-.02-.27-.14-.29-.28ZM9.4,15.42c.11-.02.2-.1.24-.2V4.79c-.03-.17-.1-.26-.28-.29-.26-.04-1.48-.04-1.72,0-.09.02-.22.1-.25.19v10.5c0,.1.11.2.21.22.23.04,1.55.04,1.8,0ZM16.54,15.14c.13-1.49-.13-3.15.03-4.65-.06-1.17-.04-2.36,0-3.53-.08-.66.1-1.54,0-2.17-.02-.12-.16-.27-.29-.29-.5-.08-1.2.05-1.72,0-.4.16-.23.61-.23.92.01.69-.03,1.38-.04,2.07-.01,2.53.02,5.06,0,7.6.03.15.08.3.25.32.27.04,1.49.04,1.76,0,.16-.03.21-.14.22-.28ZM17.88,13.32c.52.08,1.22-.05,1.76,0,.12-.04.22-.15.23-.28v-6.78c-.05-.14-.16-.21-.29-.22-.52-.07-1.19.04-1.72,0-.16.06-.27.21-.26.38v6.65c.05.14.15.24.29.26ZM4.34,13.32c.51.08,1.22-.05,1.76,0,.12-.04.22-.15.23-.28v-6.78c-.05-.14-.16-.21-.29-.22-.26-.04-1.45-.04-1.69,0-.13.03-.27.14-.26.28v6.82c.06.09.15.18.26.19ZM21.07,10.84c.35.05,1.48.04,1.84,0,.18-.02.24-.12.26-.29.04-.46.05-1.55,0-2-.02-.19-.15-.27-.32-.29-.29-.03-1.5-.05-1.76,0-.18.04-.28.17-.3.35-.05.4-.05,1.5,0,1.9.02.16.12.3.29.32ZM1.05,10.84c.57.07,1.25-.05,1.84,0,.11-.01.24-.14.25-.25-.05-.65.06-1.37,0-2.01-.02-.23-.14-.3-.36-.32-.29-.03-1.46-.04-1.72,0-.15.03-.28.16-.3.31-.05.4-.05,1.54,0,1.94.02.17.11.3.29.32ZM6.49,22.06c-.67.14-1.42-.35-1.93-.74-.3.04-.59.12-.88.2-.22.06-1.07.32-1.2.42-.1.08-.45.82-.61,1.02-.27.35-.91.93-1.32.47-.46-.5.29-1.08.69-1.33.2-.12.75-.32.87-.44.14-.14.98-2.15.97-2.33-.01-.24-.28-.75-.32-1.1-.04-.39-.08-1.15.41-1.26.58-.13.7.62.67,1.05-.02.36-.3,1.02-.27,1.3.02.22.92,1.48,1.12,1.54.64,0,1.28-.24,1.9.05.5.24.52,1-.09,1.13ZM1.87,22.19c-.06-.06-.72.38-.81.46-.09.08-.4.38-.3.52.28.38,1.2-.89,1.12-.98ZM3.14,18.34c.03.11.07.32.19.38-.02-.43.39-1.13-.07-1.41-.31.21-.2.72-.12,1.03ZM4.2,21.05l-.84-1.19-.68,1.57c.52-.06.99-.37,1.52-.38ZM6.59,21.56c.12-.46-1.21-.46-1.46-.34.18.26,1.35.78,1.46.34ZM12.9,19.98l-.18.02c-.17.11.17.79.11.98-1.31.5-2.85.5-4.13-.09-.26-.12-.55-.38-.76-.46-.05-.02-.09-.02-.13-.02-.07.07.19.39.24.46.31.4.82.8,1.27,1.04,1.15.64,2.56.79,3.82.4.08.17.1,1.07.42.88l1.27-1.78c.06-.09.07-.23-.03-.3l-1.9-1.12ZM21.24,18.34c-.95.1-.79,1.55.19,1.41.89-.12.7-1.51-.19-1.41ZM23.61,17.69v4.99c0,.33-.23.6-.54.68-.04.01-.09.03-.13.04h-4.28s-2.12,0-2.12,0c0,0,0,0,0,0h-.02c-.09,0-.17-.02-.25-.05-.02,0-.04-.03-.06-.04-.06-.03-.12-.06-.16-.11-.02-.02-.03-.04-.05-.06-.04-.05-.08-.1-.1-.16,0-.02-.01-.04-.02-.07-.02-.05-.04-.09-.05-.14v-5.16c.02-.16.09-.3.2-.41.02-.02.04-.03.05-.04.05-.04.1-.08.16-.1.02,0,.04-.02.06-.02.03-.01.06-.03.1-.04h.1s.03,0,.05,0h6.36s0,0,0,0h.04s.06.02.1.03c.33.07.58.34.58.69ZM22.86,22.42v-4.69h-6.29v3.72l1.6-1.66s.07-.03.11-.03c.2.01,1.56,1.56,1.84,1.76l.73-.76c.09-.07.2-.07.3-.03l1.72,1.68Z" fill="url(#Dégradé_sans_nom_6)"/>
</svg>